<?xml version="1.0" encoding="UTF-8" standalone="no"?>
<!-- Uploaded to: SVG Repo, www.svgrepo.com, Generator: SVG Repo Mixer Tools -->

<svg
   fill="#000000"
   height="800"
   width="800"
   version="1.1"
   id="Layer_1"
   viewBox="0 0 512 512"
   xml:space="preserve"
   xmlns="http://www.w3.org/2000/svg"
   xmlns:svg="http://www.w3.org/2000/svg"><defs
   id="defs26" />
<g
   id="g2">
	<g
   id="g1">
		<path
   d="M 349.833,52.526 H 166.247 c -5.632,0 -10.199,4.566 -10.199,10.199 v 274.532 c -2.586,-0.773 -5.324,-1.194 -8.159,-1.194 -15.747,0 -28.558,12.811 -28.558,28.558 0,5.633 4.567,10.199 10.199,10.199 5.632,0 10.199,-4.566 10.199,-10.199 0,-4.499 3.661,-8.159 8.159,-8.159 4.499,0 8.159,3.66 8.159,8.159 0,5.633 4.567,10.199 10.199,10.199 h 23.458 c 5.632,0 10.199,-4.566 10.199,-10.199 0,-4.499 3.66,-8.159 8.159,-8.159 4.499,0 8.159,3.66 8.159,8.159 0,15.747 12.811,28.558 28.558,28.558 15.747,0 28.558,-12.811 28.558,-28.558 0,-4.499 3.66,-8.159 8.159,-8.159 4.499,0 8.159,3.66 8.159,8.16 0,15.747 12.811,28.558 28.558,28.558 h 31.618 c 5.632,0 10.199,-4.566 10.199,-10.199 V 62.725 c 0.002,-5.633 -4.565,-10.199 -10.197,-10.199 z m -10.2,320.255 h -21.418 c -4.499,0 -8.159,-3.66 -8.159,-8.159 0,-15.747 -12.811,-28.558 -28.558,-28.558 -15.747,0 -28.558,12.81 -28.558,28.558 0,4.499 -3.661,8.159 -8.159,8.159 -4.498,0 -8.159,-3.66 -8.159,-8.159 0,-15.747 -12.811,-28.558 -28.558,-28.558 -12.155,0 -22.561,7.634 -26.675,18.359 h -4.943 V 72.924 h 53.036 v 194.805 c 0,5.633 4.567,10.199 10.199,10.199 5.632,0 10.199,-4.566 10.199,-10.199 V 72.924 h 54.056 v 194.805 c 0,5.633 4.567,10.199 10.199,10.199 5.632,0 10.199,-4.566 10.199,-10.199 V 72.924 h 15.299 z"
   id="path1" />
	</g>
</g>
<g
   id="g4">
	<g
   id="g3">
		<path
   d="m 223.363,402.359 c -5.632,0 -10.199,4.566 -10.199,10.199 0,4.499 -3.66,8.159 -8.159,8.159 -4.499,0 -8.159,-3.661 -8.159,-8.159 0,-15.747 -12.811,-28.558 -28.558,-28.558 -15.747,0 -28.558,12.811 -28.558,28.558 0,4.499 -3.66,8.159 -8.159,8.159 -4.499,0 -8.159,-3.661 -8.159,-8.159 0,-5.633 -4.567,-10.199 -10.199,-10.199 -5.632,0 -10.199,4.566 -10.199,10.199 0,15.747 12.811,28.558 28.558,28.558 15.747,0 28.558,-12.811 28.558,-28.558 0,-4.499 3.66,-8.159 8.159,-8.159 4.499,0 8.159,3.66 8.159,8.159 0,15.747 12.811,28.558 28.558,28.558 15.747,0 28.558,-12.811 28.558,-28.558 -0.002,-5.633 -4.569,-10.199 -10.201,-10.199 z"
   id="path2" />
	</g>
</g>
<g
   id="g6">
	<g
   id="g5">
		<path
   d="m 405.928,420.717 c -5.632,0 -10.199,4.566 -10.199,10.199 0,4.499 -3.661,8.159 -8.159,8.159 -4.499,0 -8.159,-3.66 -8.159,-8.159 0,-15.747 -12.811,-28.558 -28.558,-28.558 -15.747,0 -28.558,12.811 -28.558,28.558 0,4.499 -3.661,8.159 -8.159,8.159 -4.499,0 -8.159,-3.66 -8.159,-8.159 0,-5.633 -4.567,-10.199 -10.199,-10.199 -5.632,0 -10.199,4.566 -10.199,10.199 0,15.747 12.811,28.558 28.558,28.558 15.747,0 28.558,-12.811 28.558,-28.558 0,-4.499 3.66,-8.159 8.159,-8.159 4.499,0 8.159,3.661 8.159,8.159 0,15.747 12.811,28.558 28.558,28.558 15.747,0 28.558,-12.811 28.558,-28.558 -0.001,-5.633 -4.569,-10.199 -10.201,-10.199 z"
   id="path4" />
	</g>
</g>
<g
   id="g8">
	<g
   id="g7">
		<path
   d="m 131.569,52.526 h -17.338 c -5.632,0 -10.199,4.566 -10.199,10.199 0,5.633 4.567,10.199 10.199,10.199 h 17.338 c 5.632,0 10.199,-4.566 10.199,-10.199 0,-5.633 -4.567,-10.199 -10.199,-10.199 z"
   id="path6" />
	</g>
</g>
<g
   id="g10">
	<g
   id="g9">
		<path
   d="M 76.494,52.526 H 10.199 C 4.567,52.526 0,57.092 0,62.725 0,68.358 4.567,72.924 10.199,72.924 h 66.295 c 5.632,0 10.199,-4.566 10.199,-10.199 0,-5.633 -4.567,-10.199 -10.199,-10.199 z"
   id="path8" />
	</g>
</g>
<g
   id="g12">
	<g
   id="g11">
		<path
   d="m 201.944,79.044 c -5.632,0 -10.199,4.566 -10.199,10.199 v 120.351 c 0,5.633 4.567,10.199 10.199,10.199 5.632,0 10.199,-4.566 10.199,-10.199 V 89.243 c 0,-5.632 -4.567,-10.199 -10.199,-10.199 z"
   id="path10" />
	</g>
</g>
<g
   id="g14">
	<g
   id="g13">
		<path
   d="m 277.418,79.044 c -5.632,0 -10.199,4.566 -10.199,10.199 v 120.351 c 0,5.633 4.567,10.199 10.199,10.199 5.632,0 10.199,-4.566 10.199,-10.199 V 89.243 c 10e-4,-5.632 -4.567,-10.199 -10.199,-10.199 z"
   id="path12" />
	</g>
</g>
<g
   id="g16">
	<g
   id="g15">
		<path
   d="m 201.944,238.151 c -5.632,0 -10.199,4.566 -10.199,10.199 v 63.235 c 0,5.633 4.567,10.199 10.199,10.199 5.632,0 10.199,-4.566 10.199,-10.199 V 248.35 c 0,-5.632 -4.567,-10.199 -10.199,-10.199 z"
   id="path14" />
	</g>
</g>
<g
   id="g18">
	<g
   id="g17">
		<path
   d="m 277.418,238.151 c -5.632,0 -10.199,4.566 -10.199,10.199 v 63.235 c 0,5.633 4.567,10.199 10.199,10.199 5.632,0 10.199,-4.566 10.199,-10.199 V 248.35 c 10e-4,-5.632 -4.567,-10.199 -10.199,-10.199 z"
   id="path16" />
	</g>
</g>
<g
   id="g20">
	<g
   id="g19">
		<path
   d="M 501.801,52.526 H 388.59 c -5.632,0 -10.199,4.566 -10.199,10.199 0,5.633 4.567,10.199 10.199,10.199 h 113.211 c 5.632,0 10.199,-4.566 10.199,-10.199 0,-5.633 -4.567,-10.199 -10.199,-10.199 z"
   id="path18" />
	</g>
</g>
<g
   id="g22">
	<g
   id="g21">
		<path
   d="m 314.135,295.267 c -5.632,0 -10.199,4.566 -10.199,10.199 v 16.319 c 0,5.633 4.567,10.199 10.199,10.199 5.632,0 10.199,-4.566 10.199,-10.199 v -16.319 c 10e-4,-5.633 -4.567,-10.199 -10.199,-10.199 z"
   id="path20" />
	</g>
</g>
<g
   id="g24">
	<g
   id="g23">
		<path
   d="m 239.681,295.267 c -5.632,0 -10.199,4.566 -10.199,10.199 v 16.319 c 0,5.633 4.567,10.199 10.199,10.199 5.632,0 10.199,-4.566 10.199,-10.199 v -16.319 c 0,-5.633 -4.567,-10.199 -10.199,-10.199 z"
   id="path22" />
	</g>
</g>
<g
   id="g26">
	<g
   id="g25">
		<path
   d="m 379.41,336.064 c -5.632,0 -10.199,4.566 -10.199,10.199 0,5.633 4.567,10.199 10.199,10.199 4.499,0 8.159,3.66 8.159,8.159 0,5.633 4.567,10.199 10.199,10.199 5.632,0 10.199,-4.566 10.199,-10.199 0.001,-15.746 -12.81,-28.557 -28.557,-28.557 z"
   id="path24" />
	</g>
</g>
</svg>
